<!DOCTYPE svg PUBLIC "-//W3C//DTD SVG 1.1//EN" "http://www.w3.org/Graphics/SVG/1.1/DTD/svg11.dtd">
<!-- Uploaded to: SVG Repo, www.svgrepo.com, Transformed by: SVG Repo Mixer Tools -->
<svg fill="#ffffff" width="800px" height="800px" viewBox="0 0 24 24" id="hurricane-2" data-name="Flat Color" xmlns="http://www.w3.org/2000/svg" class="icon flat-color" stroke="#ffffff">
<g id="SVGRepo_bgCarrier" stroke-width="0"/>
<g id="SVGRepo_tracerCarrier" stroke-linecap="round" stroke-linejoin="round"/>
<g id="SVGRepo_iconCarrier">
<path id="primary" d="M12,7a4.61,4.61,0,0,0-1.4.23A8,8,0,0,1,17,4a1,1,0,0,0,0-2A10,10,0,0,0,7,12a4.61,4.61,0,0,0,.23,1.4A8,8,0,0,1,4,7,1,1,0,0,0,2,7,10,10,0,0,0,12,17a4.61,4.61,0,0,0,1.4-.23A8,8,0,0,1,7,20a1,1,0,0,0,0,2A10,10,0,0,0,17,12a4.61,4.61,0,0,0-.23-1.4A8,8,0,0,1,20,17a1,1,0,0,0,2,0A10,10,0,0,0,12,7Z" style="fill: #ffffff;"/>
</g>
</svg>